<svg width="45" height="45" viewBox="0 0 45 45" fill="none" xmlns="http://www.w3.org/2000/svg">
<path d="M41.1937 34.3687C41.1937 35.0437 41.0437 35.7375 40.725 36.4125C40.4062 37.0875 39.9938 37.725 39.45 38.325C38.5313 39.3375 37.5187 40.0688 36.375 40.5375C35.25 41.0063 34.0313 41.25 32.7188 41.25C30.8063 41.25 28.7625 40.8 26.6062 39.8813C24.45 38.9625 22.2937 37.725 20.1562 36.1688C17.9777 34.5752 15.9219 32.8203 14.0062 30.9187C12.1102 29.01 10.3614 26.9604 8.775 24.7875C7.2375 22.65 6 20.5125 5.1 18.3938C4.2 16.2563 3.75 14.2125 3.75 12.2625C3.75 10.9875 3.975 9.76875 4.425 8.64375C4.875 7.5 5.5875 6.45 6.58125 5.5125C7.78125 4.33125 9.09375 3.75 10.4813 3.75C11.0063 3.75 11.5313 3.8625 12 4.0875C12.4875 4.3125 12.9188 4.65 13.2563 5.1375L17.6063 11.2688C17.9438 11.7375 18.1875 12.1688 18.3562 12.5813C18.525 12.975 18.6188 13.3688 18.6188 13.725C18.6188 14.175 18.4875 14.625 18.225 15.0562C17.9813 15.4875 17.625 15.9375 17.175 16.3875L15.75 17.8687C15.5437 18.075 15.45 18.3188 15.45 18.6188C15.45 18.7688 15.4688 18.9 15.5063 19.05C15.5625 19.2 15.6188 19.3125 15.6563 19.425C15.9938 20.0437 16.575 20.85 17.4 21.825C18.2437 22.8 19.1437 23.7938 20.1187 24.7875C21.1312 25.7813 22.1062 26.7 23.1 27.5437C24.075 28.3687 24.8812 28.9312 25.5187 29.2687C25.6125 29.3062 25.725 29.3625 25.8562 29.4187C26.0062 29.475 26.1562 29.4937 26.325 29.4937C26.6437 29.4937 26.8875 29.3813 27.0937 29.175L28.5188 27.7688C28.9875 27.3 29.4375 26.9437 29.8688 26.7188C30.3 26.4562 30.7312 26.325 31.2 26.325C31.5562 26.325 31.9313 26.4 32.3438 26.5688C32.7562 26.7375 33.1875 26.9813 33.6563 27.3L39.8625 31.7062C40.35 32.0437 40.6875 32.4375 40.8937 32.9062C41.0812 33.375 41.1937 33.8437 41.1937 34.3687Z" stroke="black" stroke-width="3" stroke-miterlimit="10"/>
<path d="M34.6875 16.875C34.6875 15.75 33.8062 14.025 32.4937 12.6188C31.2937 11.325 29.7 10.3125 28.125 10.3125M41.25 16.875C41.25 9.61875 35.3812 3.75 28.125 3.75" stroke="black" stroke-width="3" stroke-linecap="round" stroke-linejoin="round"/>
</svg>
