<svg width="45" height="45" viewBox="0 0 45 45" fill="none" xmlns="http://www.w3.org/2000/svg">
<path d="M16.875 41.25H28.125C37.5 41.25 41.25 37.5 41.25 28.125V16.875C41.25 7.5 37.5 3.75 28.125 3.75H16.875C7.5 3.75 3.75 7.5 3.75 16.875V28.125C3.75 37.5 7.5 41.25 16.875 41.25Z" stroke="black" stroke-width="3" stroke-linecap="round" stroke-linejoin="round"/>
<path d="M22.5 29.0625C23.3618 29.0625 24.2152 28.8928 25.0114 28.563C25.8076 28.2332 26.531 27.7498 27.1404 27.1404C27.7498 26.531 28.2332 25.8076 28.563 25.0114C28.8928 24.2152 29.0625 23.3618 29.0625 22.5C29.0625 21.6382 28.8928 20.7848 28.563 19.9886C28.2332 19.1924 27.7498 18.469 27.1404 17.8596C26.531 17.2502 25.8076 16.7668 25.0114 16.437C24.2152 16.1072 23.3618 15.9375 22.5 15.9375C20.7595 15.9375 19.0903 16.6289 17.8596 17.8596C16.6289 19.0903 15.9375 20.7595 15.9375 22.5C15.9375 24.2405 16.6289 25.9097 17.8596 27.1404C19.0903 28.3711 20.7595 29.0625 22.5 29.0625Z" stroke="black" stroke-width="3" stroke-linecap="round" stroke-linejoin="round"/>
<path d="M33.0675 13.125H33.09" stroke="black" stroke-width="3" stroke-linecap="round" stroke-linejoin="round"/>
</svg>
